<?xml version="1.0" encoding="UTF-8"?>
<svg xmlns="http://www.w3.org/2000/svg" id="Capa_2" data-name="Capa 2" viewBox="0 0 374.96 68.87">
  <defs>
    <style>      .cls-1 {        fill: #00bebe;      }      .cls-2 {        fill: #ff7464;      }      .cls-3 {        fill: #fff;      }    </style>
  </defs>
  <g id="Capa_1-2" data-name="Capa 1">
    <g>
      <g>
        <rect class="cls-2" x="0" y="38.21" width="11.29" height="30.65" rx="5.65" ry="5.65"></rect>
        <rect class="cls-2" x="29.56" y="34.16" width="11.29" height="34.71" rx="5.65" ry="5.65"></rect>
        <rect class="cls-2" x="59.12" y="29.3" width="11.29" height="39.57" rx="5.65" ry="5.65"></rect>
        <rect class="cls-1" x="14.78" y="28.48" width="11.29" height="40.39" rx="5.65" ry="5.65"></rect>
        <rect class="cls-1" x="44.34" y="20.87" width="11.29" height="48" rx="5.65" ry="5.65"></rect>
        <rect class="cls-1" x="73.9" y="0" width="11.29" height="68.87" rx="5.65" ry="5.65"></rect>
      </g>
      <g>
        <g>
          <path class="cls-1" d="M132.97,41.59c-.88-1.16-1.93-2.08-3.15-2.76-1.2-.67-1.34-2.3-.26-3.15.72-.57,1.34-1.23,1.86-1.99,1.26-1.83,1.89-4.11,1.89-6.84,0-2.29-.44-4.38-1.31-6.26s-2.11-3.41-3.69-4.58c-1.24-.91-2.73-1.56-4.5-1.96-1.76-.39-4.48-.59-8.17-.59h-1.25v2.98c0,2.09,1.54,3.9,3.62,4.15,2.13.26,3.68.75,4.67,1.49,1.51,1.13,2.27,3.1,2.27,5.89,0,2.57-.82,4.39-2.47,5.47-1.21.8-3.06,1.31-5.54,1.52-1.44.12-2.55,1.33-2.55,2.77v1.76c0,1.04.84,1.88,1.88,1.88,1.68,0,3.03.1,4.04.28,1.01.19,1.92.48,2.71.87,1.26.68,2.23,1.62,2.9,2.83.68,1.22,1.01,2.64,1.01,4.27,0,1.37-.28,2.64-.84,3.78-.56,1.14-1.35,2.05-2.38,2.73-.84.58-1.98.99-3.43,1.22-.48.08-1.05.14-1.7.19-2.37.19-4.2,2.17-4.2,4.54v2.57s1.32,0,1.32,0c4.9,0,8.38-.29,10.46-.87,2.07-.58,3.81-1.59,5.21-3.01,1.33-1.3,2.36-2.89,3.08-4.76.72-1.87,1.09-3.84,1.09-5.91,0-3.43-.86-6.27-2.57-8.52ZM107.51,64.65h0c2.25,0,4.07-1.82,4.07-4.07V17.52c0-2.25-1.82-4.07-4.07-4.07h0c-2.25,0-4.07,1.82-4.07,4.07v43.06c0,2.25,1.82,4.07,4.07,4.07Z"></path>
          <rect class="cls-1" x="175.09" y="13.45" width="35.47" height="7.07" rx="3.53" ry="3.53"></rect>
          <rect class="cls-3" x="188.69" y="23.32" width="8.32" height="41.33" rx="4.16" ry="4.16"></rect>
          <path class="cls-3" d="M211.38,64.66h0c1.57,0,2.99-.94,3.61-2.38l4.68-10.92,6.79-14.69c1.42-3.06,5.78-3.03,7.15.05l11.37,25.6c.63,1.42,2.04,2.33,3.59,2.33h.08c2.87,0,4.77-2.98,3.56-5.58l-18.62-40.02c-1.41-3.02-5.71-3.03-7.11,0l-18.64,40.02c-1.21,2.6.69,5.58,3.56,5.58Z"></path>
          <path class="cls-1" d="M140.44,64.66h0c1.57,0,2.99-.94,3.61-2.38l4.68-10.92,6.79-14.69c1.42-3.06,5.78-3.03,7.15.05l11.37,25.6c.63,1.42,2.04,2.33,3.59,2.33h.08c2.87,0,4.77-2.98,3.56-5.58l-18.62-40.02c-1.41-3.02-5.71-3.03-7.11,0l-18.64,40.02c-1.21,2.6.69,5.58,3.56,5.58Z"></path>
        </g>
        <g>
          <path class="cls-1" d="M290.68,39.58h.98c1.11,0,2.01.9,2.01,2.01v19.3c0,.89-.58,1.68-1.44,1.93-1,.3-2.35.64-4.05,1.02-2.72.61-6.08.92-10.05.92-3.34,0-6.43-.59-9.28-1.77-2.85-1.18-5.32-2.88-7.4-5.12-2.09-2.23-3.72-5.01-4.9-8.32-1.18-3.31-1.77-7.1-1.77-11.38s.64-8.06,1.91-11.38c1.28-3.31,3.01-6.09,5.19-8.32,2.18-2.23,4.73-3.94,7.62-5.12,2.89-1.18,5.99-1.77,9.28-1.77,3.78,0,6.9.4,9.35,1.22,1.46.48,2.68.95,3.67,1.4s1.44,1.58,1.04,2.58l-.18.45c-.43,1.09-1.69,1.56-2.76,1.06s-2.29-.93-3.69-1.29c-2.36-.61-4.91-.92-7.66-.92-2.55,0-4.96.47-7.22,1.4-2.26.93-4.22,2.33-5.89,4.2-1.67,1.87-2.98,4.17-3.94,6.92-.96,2.75-1.44,5.94-1.44,9.57,0,3.39.39,6.45,1.18,9.17s1.98,5.06,3.57,7c1.6,1.94,3.57,3.42,5.93,4.45,2.36,1.03,5.08,1.55,8.17,1.55,2.5,0,4.6-.13,6.3-.41.7-.11,1.3-.22,1.81-.33.94-.2,1.61-1.02,1.61-1.98v-16.04c0-1.11.9-2.01,2.01-2.01Z"></path>
          <path class="cls-1" d="M305.31,61.71V14.71c0-1.11.9-2.01,2.01-2.01h25.42c1.11,0,2.01.9,2.01,2.01v.32c0,1.11-.9,2.01-2.01,2.01h-20.42c-1.11,0-2.01.9-2.01,2.01v13.72c0,1.11.9,2.01,2.01,2.01h17.77c1.11,0,2.01.9,2.01,2.01v.24c0,1.11-.9,2.01-2.01,2.01h-17.77c-1.11,0-2.01.9-2.01,2.01v16.29c0,1.11.9,2.01,2.01,2.01h22.33c1.11,0,2.01.9,2.01,2.01v.32c0,1.11-.9,2.01-2.01,2.01h-27.34c-1.11,0-2.01-.9-2.01-2.01Z"></path>
          <path class="cls-1" d="M357.14,60.49c3.98,0,7.07-.73,9.28-2.18,2.21-1.45,3.31-3.8,3.31-7.05,0-1.87-.36-3.43-1.07-4.69-.71-1.26-1.66-2.31-2.83-3.17-1.18-.86-2.53-1.6-4.05-2.21-1.52-.61-3.12-1.26-4.79-1.94-2.11-.83-4-1.68-5.67-2.56s-3.09-1.87-4.27-2.98c-1.18-1.1-2.08-2.37-2.69-3.79-.61-1.42-.92-3.1-.92-5.01,0-4.37,1.45-7.68,4.34-9.94,2.89-2.26,6.92-3.39,12.08-3.39,1.37,0,2.72.1,4.05.29,1.32.2,2.56.46,3.72.78,1.15.32,2.21.67,3.17,1.07.25.1.5.21.73.32.97.45,1.38,1.61.97,2.59l-.18.44c-.45,1.07-1.7,1.54-2.73,1.03s-2.12-.92-3.34-1.28c-2.04-.59-4.23-.88-6.59-.88-1.62,0-3.1.16-4.46.48-1.35.32-2.51.84-3.5,1.55-.98.71-1.76,1.61-2.32,2.69-.57,1.08-.85,2.38-.85,3.9s.3,2.89.88,3.98c.59,1.08,1.41,2.01,2.47,2.8,1.06.79,2.3,1.5,3.72,2.13,1.42.64,2.97,1.3,4.64,1.99,2.01.84,3.91,1.67,5.7,2.5,1.79.84,3.35,1.82,4.68,2.95,1.32,1.13,2.38,2.5,3.17,4.13.79,1.62,1.18,3.61,1.18,5.96,0,4.62-1.61,8.08-4.82,10.39s-7.57,3.46-13.07,3.46c-1.96,0-3.75-.12-5.38-.37s-3.07-.55-4.34-.92c-1.28-.37-2.36-.75-3.24-1.14-.14-.06-.27-.12-.39-.18-.96-.44-1.41-1.54-1.04-2.53l.2-.53c.41-1.11,1.69-1.62,2.76-1.11,0,0,.02,0,.03.01.83.39,1.82.77,2.95,1.14,1.13.37,2.4.67,3.83.92,1.42.25,2.99.37,4.71.37Z"></path>
        </g>
      </g>
    </g>
  </g>
</svg>
